# xmcd
#
# Track frame offsets:
#	150
#	18031
#	32269
#	55253
#	77731
#	99683
#	124281
#	152933
#	175025
#	200976
#	227385
#	254724
#
# Disc length: 3756 seconds
#
# Revision: 0
# Processed by: cddbd v1.5.2PL0 Copyright (c) Steve Scherf et al.
# Submitted via: audiograbber 1.83.01
#
DISCID=980eaa0c
DTITLE=Various Artist - Serious Beats 77 [CD 2)
DYEAR=2014
DGENRE=Dance
TTITLE0=Dj Fresh vs. Jay Fay ft. Ms Dynamite - Dibby Dibby Sound
TTITLE1=Yellow Claw ft. Rochelle - Shotgun
TTITLE2=Sub Focus - Turn Back Time
TTITLE3=Martin Solveig and Laidback Luke - Blow
TTITLE4=Dimitri Vegas and Like Mike ft. Wolfpack and Katy B - Find Tomorrow (Ocarin
TTITLE4=a)
TTITLE5=Avicii - Hey Brother
TTITLE6=Dan Diablo and Matt Nash - Starlight (Could You Be Mine) (Otto Knows Remi
TTITLE6=x)
TTITLE7=Vato Gonzalez Triplets Riddim - Triplets Riddim
TTITLE8=The Partysquad and Mitchell Niemeyer - Pantsdown
TTITLE9=Nicolaz ft. Angelika Vee - Riot (Alvar and Millas Remix)
TTITLE10=Kenn Colt ft. Brenton Mattheus - Tonight
TTITLE11=Tiësto - Red Lights
EXTD=
EXTT0=
EXTT1=
EXTT2=
EXTT3=
EXTT4=
EXTT5=
EXTT6=
EXTT7=
EXTT8=
EXTT9=
EXTT10=
EXTT11=
PLAYORDER=
